<svg width="60" height="61" viewBox="0 0 60 61" fill="none" xmlns="http://www.w3.org/2000/svg">
<rect y="0.0942383" width="60" height="60" rx="30" fill="#4B4D53"/>
<path d="M50.6673 25.5019C50.6673 28.2275 41.5031 30.5233 30.0118 30.5233C18.5206 30.5233 9.35637 28.2275 9.35637 25.5019C9.3202 25.3235 9.32786 25.1396 9.37938 24.9655C9.4298 24.7903 9.52187 24.6304 9.64682 24.4977L10.5193 23.7806C13.4294 21.7721 21.138 20.4806 30.0118 20.4806C38.8856 20.4806 46.5943 21.7721 49.5044 23.7806L50.2311 24.4977H50.3769C50.5621 24.8012 50.6618 25.1472 50.6673 25.5019Z" fill="#7B384D"/>
<path d="M49.5031 23.7795C46.5941 21.771 38.8843 20.4805 30.0116 20.4805C21.1378 20.4805 13.4291 21.771 10.519 23.7795L23.7563 15.3156C25.4695 13.7825 27.6989 12.9338 30.0116 12.9338C32.3243 12.9338 34.5537 13.7825 36.2669 15.3156L49.5031 23.7795Z" fill="#F9B083"/>
<path d="M38.3034 18.0415C38.8844 17.7543 39.1759 17.467 39.1759 17.1798L37.2852 15.8894C36.621 15.7131 35.9304 15.6652 35.2487 15.7458C34.5209 16.1755 35.2487 19.1883 38.3034 18.0415Z" fill="#EC1E79"/>
<path d="M20.4106 17.4677C20.5553 17.4677 20.5553 17.6113 20.7011 17.7549C23.9016 20.0496 28.5566 14.8846 27.6831 13.8804H26.3744C25.4109 14.2449 24.5231 14.7791 23.7559 15.4591L20.4106 17.4677Z" fill="#EC1E79"/>
<path d="M36.8493 27.7961V45.7294C36.8493 45.9872 36.7967 46.2418 36.6926 46.4779C36.5884 46.714 36.4361 46.9273 36.2443 47.1025C36.0536 47.2777 35.8278 47.4115 35.5812 47.4964C35.3346 47.5812 35.0726 47.615 34.8128 47.5943H25.2123C24.9515 47.615 24.6906 47.5812 24.444 47.4964C24.1974 47.4115 23.9716 47.2777 23.7798 47.1025C23.5879 46.9273 23.4356 46.714 23.3326 46.4779C23.2284 46.2418 23.1747 45.9872 23.1758 45.7294V27.7961C23.1736 27.4773 23.2909 27.1694 23.5057 26.9301C23.7206 26.6918 24.0176 26.5405 24.3387 26.5046C28.0994 25.9312 31.9258 25.9312 35.6853 26.5046C36.0064 26.5405 36.3035 26.6918 36.5183 26.9301C36.7331 27.1694 36.8515 27.4773 36.8493 27.7961Z" fill="#F9B083"/>
<path d="M44.7049 36.5486C44.7236 36.9207 44.6512 37.2928 44.4912 37.6312C44.3323 37.9696 44.0922 38.2644 43.7908 38.4907C43.4905 38.716 43.1376 38.8672 42.7649 38.9281C42.3922 38.9902 42.0097 38.9608 41.6502 38.8444C40.0499 38.7007 39.1774 37.122 36.5589 36.6922C33.9404 36.2613 31.7592 36.9784 30.5952 38.4135C29.4312 39.8486 29.8674 38.7007 29.7227 38.4135C29.5769 38.1262 25.6497 36.4049 23.6132 36.6922C21.5767 36.9784 20.1211 38.7007 18.522 38.8444C18.1636 38.9292 17.792 38.9358 17.4314 38.8607C17.0708 38.7867 16.7321 38.6333 16.4394 38.4135C16.1468 38.1937 15.9078 37.9119 15.7401 37.5898C15.5713 37.2667 15.4782 36.9109 15.4672 36.5486C15.0902 36.8271 14.7975 37.2003 14.6178 37.6301C14.4391 38.0588 14.3799 38.5277 14.449 38.9869C14.5136 39.3285 14.6517 39.6517 14.8545 39.9357C15.0562 40.2197 15.317 40.4579 15.6207 40.6342C15.9232 40.8115 16.2608 40.9215 16.6104 40.9595C16.9601 40.9965 17.3141 40.9606 17.6484 40.8529C17.6484 40.8529 17.3579 43.7221 20.7032 43.5785C24.0495 43.4348 23.3217 41.5699 23.3217 41.5699C23.3217 41.5699 25.504 43.2912 26.9584 43.004C27.5141 42.9213 28.0479 42.7254 28.5236 42.4295C28.9982 42.1324 29.4071 41.7429 29.7227 41.2827C29.8674 40.9954 30.3036 40.9954 30.5952 41.2827C30.9098 41.7429 31.3186 42.1324 31.7943 42.4295C32.27 42.7254 32.8027 42.9213 33.3584 43.004C34.6682 43.2912 35.9769 42.1433 36.8494 41.5699C37.723 40.9954 38.0134 43.4348 39.4679 43.5785C40.9224 43.7221 42.5227 40.8529 42.5227 40.8529C42.8668 40.9606 43.2296 40.9976 43.588 40.9617C43.9476 40.9258 44.295 40.8159 44.6085 40.6407C44.9231 40.4656 45.1971 40.2284 45.4141 39.9444C45.6311 39.6593 45.7857 39.334 45.869 38.9869C45.9391 38.5136 45.8668 38.0283 45.6596 37.5953C45.4525 37.1611 45.1204 36.7967 44.7049 36.5486Z" fill="#7B384D"/>
<path d="M33.9376 33.8221C33.7447 33.8221 33.5605 33.747 33.4235 33.6121C33.2876 33.4783 33.2109 33.2955 33.2109 33.1051C33.2109 32.5317 32.9193 32.2444 32.7746 32.2444C32.6289 32.2444 32.3384 32.5317 32.3384 33.1051C32.3384 33.2955 32.2617 33.4783 32.1247 33.6121C31.9887 33.747 31.8035 33.8221 31.6106 33.8221C31.4177 33.8221 31.2325 33.747 31.0966 33.6121C30.9595 33.4783 30.8828 33.2955 30.8828 33.1051C30.8828 32.6111 31.0823 32.1367 31.4374 31.7864C31.7915 31.4371 32.2726 31.2402 32.7746 31.2402C33.2755 31.2402 33.7567 31.4371 34.1118 31.7864C34.4659 32.1367 34.6654 32.6111 34.6654 33.1051C34.6369 33.2857 34.5514 33.4522 34.4198 33.5806C34.2894 33.71 34.1206 33.7949 33.9376 33.8221Z" fill="#23272A"/>
<path d="M28.4129 33.8221C28.22 33.8221 28.0348 33.747 27.8989 33.6121C27.7619 33.4783 27.6851 33.2955 27.6851 33.1051C27.6851 32.5317 27.3947 32.2444 27.2489 32.2444C27.1042 32.2444 26.8126 32.5317 26.8126 33.1051C26.8126 33.2955 26.7359 33.4783 26.6 33.6121C26.463 33.747 26.2778 33.8221 26.0859 33.8221C25.9029 33.7949 25.7341 33.71 25.6037 33.5806C25.4721 33.4522 25.3867 33.2857 25.3582 33.1051C25.3582 32.6111 25.5576 32.1367 25.9117 31.7864C26.2668 31.4371 26.748 31.2402 27.2489 31.2402C27.7509 31.2402 28.2321 31.4371 28.5861 31.7864C28.9412 32.1367 29.1396 32.6111 29.1396 33.1051C29.1111 33.2857 29.0256 33.4522 28.8952 33.5806C28.7648 33.71 28.596 33.7949 28.4129 33.8221Z" fill="#23272A"/>
</svg>
