<svg width="60" height="61" viewBox="0 0 60 61" fill="none" xmlns="http://www.w3.org/2000/svg">
<rect y="0.0939941" width="60" height="60" rx="30" fill="#C8FFD6"/>
<path d="M27.0876 42.6657C27.103 42.776 28.8391 48.4061 31.3747 48.075C33.9103 47.7438 32.526 41.8931 32.526 41.8931L27.0876 42.6657Z" fill="#29CC7A"/>
<path d="M53.277 42.8811C52.9584 45.0851 51.0622 48.5221 49.4016 48.0698C47.7411 47.6174 46.945 43.4469 47.2636 41.2429C47.5822 39.0389 49.1867 37.6191 50.8473 38.0714C52.5078 38.5238 53.5956 40.6771 53.277 42.8811Z" fill="#29CC7A"/>
<path d="M51.4318 35.9432C48.6365 29.1209 45.1688 21.6353 45.1688 21.6353L25.4327 21.9196C25.4327 21.9196 20.0964 33.3521 21.3475 39.6036C21.7677 41.7037 23.7898 43.3339 25.9315 43.3339H35.6404L34.7783 37.2224L37.1942 36.5677C37.1942 36.5677 38.2851 39.8301 39.7467 41.8558C40.4112 42.7768 41.4981 43.3339 42.5775 43.3339H47.4552C48.4374 43.3339 49.3801 43.112 50.1789 42.6524C51.6394 41.8121 53.079 39.9634 51.4318 35.9432Z" fill="white"/>
<path d="M24.5384 34.3895C24.591 33.8863 23.798 33.6647 23.6486 34.1368C22.3483 38.2453 22.6239 40.8572 23.0845 42.3264C23.7903 42.873 24.6427 43.2316 25.5329 43.3151C24.5435 41.546 24.2445 37.2039 24.5384 34.3895Z" fill="#29CC7A"/>
<path d="M46.147 34.3896C46.1605 33.8789 45.4066 33.6648 45.2572 34.1369C43.5753 39.4512 44.5299 42.2618 45.1114 43.334H47.1525C46.1529 41.5764 46.0693 37.3256 46.147 34.3896Z" fill="#29CC7A"/>
<path d="M30.9328 43.334C30.9328 43.334 26.6771 43.3901 29.9594 36.5677H36.037C36.037 36.5677 37.4278 39.3339 37.512 41.3441C37.5595 42.4766 36.695 43.3324 35.5366 43.3327L30.9328 43.334Z" fill="#88FC9A"/>
<path d="M30.4253 36.5677C30.4253 36.5677 30.3859 38.3409 32.8033 38.2646H37.8456L37.1946 36.5677H30.4253Z" fill="#29CC7A"/>
<path d="M48.3963 28.8142L46.4005 30.1033C45.7346 30.5364 44.9283 30.7612 44.0768 30.7612H22.3253C22.2917 30.7612 22.2571 30.7546 22.2283 30.7414C22.3059 30.4571 22.3841 30.1762 22.4661 29.8985H43.9552C44.6485 29.8985 45.2987 29.7134 45.8417 29.3629L47.9676 27.9943C47.9864 27.9844 48.0052 27.9745 48.0244 27.9679C48.1443 28.2456 48.2716 28.5266 48.3963 28.8142Z" fill="#88FC9A"/>
<path d="M41.7817 25.5493C41.0018 24.764 39.9565 24.3136 38.9138 24.3136H28.2903C27.103 24.3136 26.0665 24.9338 25.5856 25.9325C24.8909 27.375 24.4863 29.0008 24.3834 30.7645C24.3327 31.6382 24.6897 32.534 25.3634 33.2219C26.0387 33.9114 26.9474 34.307 27.8564 34.307H39.7834C41.4732 34.307 42.7485 33.121 42.8157 31.4872L42.944 28.3715C42.9854 27.3633 42.5617 26.3346 41.7817 25.5493Z" fill="#29CC7A"/>
<path d="M28.7044 32.5609H27.0844C26.7223 32.5609 26.4035 32.2378 26.4206 31.8881C26.4337 31.619 26.6454 31.4238 26.9241 31.4238L28.544 31.424C28.9061 31.424 29.225 31.7469 29.208 32.0966C29.1948 32.3658 28.9831 32.5609 28.7044 32.5609Z" fill="white"/>
<path d="M40.2803 32.5608H38.6603C38.2981 32.5608 37.9792 32.2377 37.9963 31.8879C38.0094 31.6188 38.2211 31.4238 38.4998 31.4238H40.1198C40.4819 31.4238 40.8009 31.7468 40.7838 32.0965C40.7707 32.3656 40.559 32.5608 40.2803 32.5608Z" fill="white"/>
<path d="M31.7505 31.0843H30.1112C29.5393 31.0843 29.0356 30.5745 29.062 30.0221L29.1997 27.1482C29.2338 26.4368 29.7929 25.9207 30.5296 25.9207H32.0776C32.6495 25.9207 33.153 26.4306 33.1266 26.983L32.9847 29.945C32.9531 30.6052 32.4342 31.0843 31.7505 31.0843Z" fill="white"/>
<path d="M36.5375 31.0843H34.8981C34.3261 31.0843 33.8224 30.5745 33.8489 30.0221L33.9867 27.1482C34.0208 26.4368 34.5798 25.9207 35.3164 25.9207H36.8644C37.4364 25.9207 37.9399 26.4306 37.9134 26.983L37.7716 29.945C37.7399 30.6052 37.2212 31.0843 36.5375 31.0843Z" fill="white"/>
<path d="M31.7548 29.1761H30.8805C30.5755 29.1761 30.307 28.9042 30.3211 28.6097L30.3945 27.0771C30.4127 26.6977 30.7108 26.4226 31.1036 26.4226H31.9291C32.234 26.4226 32.5027 26.6945 32.4886 26.989L32.4129 28.5687C32.3959 28.9207 32.1194 29.1761 31.7548 29.1761Z" fill="#29CC7A"/>
<path d="M36.6628 29.1761H35.7887C35.4837 29.1761 35.2152 28.9042 35.2293 28.6097L35.3026 27.0771C35.3207 26.6977 35.619 26.4226 36.0118 26.4226H36.8373C37.1423 26.4226 37.4108 26.6945 37.3967 26.989L37.321 28.5687C37.3041 28.9207 37.0273 29.1761 36.6628 29.1761Z" fill="#29CC7A"/>
<path d="M35.9963 18.7428C35.9963 18.7428 41.6599 12.0896 42.5286 19.1058L35.9963 18.7428Z" fill="#88FC9A"/>
<path d="M24.144 21.0502C24.3057 21.4696 24.665 21.9053 25.4095 22.2044C25.8053 22.3634 26.2202 22.4408 26.6272 22.4408H30.2527C30.4958 22.4408 30.7307 22.6031 30.8223 22.8349L30.8916 23.0101C31.256 23.9311 32.2913 24.4044 33.1044 23.7064C33.948 22.9821 34.3566 22.4408 35.2968 22.4408H44.365C44.365 22.4408 45.6451 22.3193 46.4466 21.7506C47.3862 21.0839 46.7843 19.5096 45.536 19.3549C42.1704 18.9378 32.0225 17.6053 24.8421 19.5744C24.21 19.7477 23.8936 20.401 24.144 21.0502Z" fill="#57F287"/>
<path d="M44.6152 36.6353C46.0326 37.1091 45.7641 38.6251 45.7641 38.6251C46.9833 38.0861 47.9309 38.9498 47.9309 38.9498C48.0616 36.0617 45.3426 34.7293 45.1217 34.6259C45.1139 34.6223 45.1053 34.6252 45.1028 34.6326C45.0857 34.6812 43.6752 34.3943 43.4013 34.3534C42.7101 34.2501 42.0719 35.2771 42.44 35.7986C42.7118 36.1836 44.6487 36.3905 44.6152 36.6353Z" fill="#88FC9A"/>
<path d="M47.0681 36.219L45.2688 37.0156C45.4816 37.2166 45.6092 37.4528 45.6839 37.6816L47.4871 36.8832C47.3634 36.6414 47.2207 36.4203 47.0681 36.219Z" fill="#57F287"/>
<path d="M45.1977 45.4467C43.8525 46.2427 40.8328 46.6296 39.9718 45.4122C39.1108 44.1949 40.8855 41.2362 42.2308 40.4402C43.576 39.6442 45.2137 40.5836 46.0747 41.8009C46.9357 43.0183 46.543 44.6507 45.1977 45.4467Z" fill="#88FC9A"/>
<path d="M43.972 45.3433C43.0579 45.8842 41.0797 46.2514 40.5854 45.5525C40.0911 44.8535 41.2682 43.3533 42.1822 42.8125C43.0963 42.2716 44.238 42.3996 44.7323 43.0985C45.2265 43.7975 44.886 44.8024 43.972 45.3433Z" fill="#29CC7A"/>
<path d="M48.6329 39.3006C47.959 38.6661 45.5563 37.3112 43.3579 38.8723C42.6682 39.3621 41.9953 40.2811 42.0554 41.7256C42.0855 42.4453 42.1083 43.1386 41.9203 43.8065C41.4457 45.4922 41.4022 47.2492 42.3114 47.9405C43.8192 49.0868 47.3756 46.8688 48.7282 45.0452C50.0808 43.2216 50.011 40.5984 48.6329 39.3006Z" fill="#57F287"/>
<path d="M43.3103 39.779C42.7574 40.386 42.7155 41.2289 43.2306 41.6481C43.7457 42.0673 44.5982 41.8849 45.1274 41.2547C45.6566 40.6245 45.6533 39.8344 45.1644 39.4352C44.6754 39.0359 43.8472 39.1856 43.3103 39.779Z" fill="white"/>
<path d="M43.3643 40.0772C43.0546 40.4684 43.0516 40.9604 43.3508 41.1889C43.65 41.4174 44.1504 41.3056 44.4726 40.929C44.7948 40.5524 44.8211 40.0217 44.5107 39.7846C44.2002 39.5474 43.6826 39.6821 43.3643 40.0772Z" fill="#29CC7A"/>
<path d="M42.9839 40.6357L43.052 40.1915L44.8469 40.2773L44.7818 40.7185L42.9839 40.6357Z" fill="white"/>
<path d="M45.9798 33.1545C46.9779 32.1742 39.717 32.5971 39.717 32.5971L39.854 38.2102C39.854 38.2102 44.0814 38.9215 44.5511 36.903C45.0208 34.8846 44.9817 34.1349 45.9798 33.1545Z" fill="white"/>
<path d="M20.5527 31.7674C20.5527 31.7674 21.9599 34.5046 24.5776 35.2441C24.5788 35.2445 24.5795 35.2456 24.5793 35.2467C24.5718 35.2927 27.2314 35.3613 26.7932 37.9076C26.7518 38.1482 25.2412 38.0971 24.3577 37.9553C24.3577 37.9553 20.5668 36.9961 18.6236 33.3286L20.5527 31.7674Z" fill="#88FC9A"/>
<path d="M19.5045 34.6796C19.6729 34.8927 19.847 35.0928 20.0244 35.2811L22.048 33.7188C21.8466 33.5235 21.6652 33.3265 21.5036 33.1364L19.5045 34.6796Z" fill="#57F287"/>
<path d="M21.6844 36.6813C21.9169 36.8374 22.1443 36.9763 22.3624 37.0997L23.248 34.6571C23.0126 34.5137 22.7921 34.357 22.5865 34.1931L21.6844 36.6813Z" fill="#57F287"/>
<path d="M10.6904 17.5014L9.43493 22.0796L12.8954 26.8107C12.8954 26.8107 17.9023 24.6219 17.8715 24.807C17.8407 24.992 15.8135 17.5821 15.7981 17.6747C15.7828 17.7673 13.2563 16.3287 13.2563 16.3287L10.6904 17.5014Z" fill="#29CC7A"/>
<path d="M8.39865 28.9512C6.98596 25.5796 6.24679 19.2273 8.34289 18.5697C10.439 17.912 14.5766 23.1978 15.9893 26.5693C17.402 29.9409 17.9712 32.5859 15.8751 33.2436C13.779 33.9012 9.81135 32.3228 8.39865 28.9512Z" fill="#88FC9A"/>
<path d="M9.62425 18.7503C10.3015 15.6873 12.4211 15.4904 12.4211 15.4904C18.4508 14.8718 20.845 22.164 21.5346 24.857C22.0956 27.0477 22.3917 33.956 17.9579 33.8878C13.524 33.8196 13.9636 28.8022 13.9927 28.0336C14.0219 27.265 15.7108 19.9804 13.6335 17.7239C11.9593 15.9051 10.7585 18.1744 10.6727 19.3864C10.6727 19.3864 10.1464 18.9898 9.62425 18.7503Z" fill="#57F287"/>
<path d="M19.9252 29.7884C19.7432 31.2324 18.7675 32.1736 17.7487 31.8558C16.7298 31.538 16.1011 30.0976 16.3348 28.6641C16.5686 27.2307 17.5256 26.411 18.4943 26.7113C19.463 27.0116 20.1068 28.3819 19.9252 29.7884Z" fill="white"/>
<path d="M19.5119 30.0211C19.348 30.8834 18.7573 31.4011 18.1836 31.201C17.6099 31.0009 17.2466 30.1505 17.3803 29.2851C17.5141 28.4197 18.1284 27.8275 18.7238 28.0351C19.3191 28.2427 19.6717 29.1422 19.5119 30.0211Z" fill="#29CC7A"/>
<path d="M19.9284 30.0776L19.7862 29.274L16.9638 29.775L17.0994 30.5744L19.9284 30.0776Z" fill="white"/>
<path d="M24.5489 32.9814C24.3727 33.4235 24.5097 37.691 24.5097 38.9021C24.5097 40.1131 28.0325 39.9017 28.0325 39.9017L30.8704 33.8849C30.8704 33.8849 24.725 32.5393 24.5489 32.9814Z" fill="white"/>
<path d="M48.3963 28.8142L46.4005 30.1033C45.7346 30.5364 44.9283 30.7612 44.0768 30.7612H22.3253C22.2917 30.7612 22.2571 30.7546 22.2283 30.7414C22.3059 30.4571 22.3841 30.1762 22.4661 29.8985H43.9552C44.6485 29.8985 45.2987 29.7134 45.8417 29.3629L47.9676 27.9943C47.9864 27.9844 48.0052 27.9745 48.0244 27.9679C48.1443 28.2456 48.2716 28.5266 48.3963 28.8142Z" fill="#88FC9A"/>
<path d="M41.7817 25.5493C41.0018 24.764 39.9565 24.3136 38.9138 24.3136H28.2903C27.103 24.3136 26.0665 24.9338 25.5856 25.9325C24.8909 27.375 24.4863 29.0008 24.3834 30.7645C24.3327 31.6382 24.6897 32.534 25.3634 33.2219C26.0387 33.9114 26.9474 34.307 27.8564 34.307H39.7834C41.4732 34.307 42.7485 33.121 42.8157 31.4872L42.944 28.3715C42.9854 27.3633 42.5617 26.3346 41.7817 25.5493Z" fill="#29CC7A"/>
<path d="M28.7044 32.5609H27.0844C26.7223 32.5609 26.4035 32.2378 26.4206 31.8881C26.4337 31.619 26.6454 31.4238 26.9241 31.4238L28.544 31.424C28.9061 31.424 29.225 31.7469 29.208 32.0966C29.1948 32.3658 28.9831 32.5609 28.7044 32.5609Z" fill="white"/>
<path d="M40.2803 32.5608H38.6603C38.2981 32.5608 37.9792 32.2377 37.9963 31.8879C38.0094 31.6188 38.2211 31.4238 38.4998 31.4238H40.1198C40.4819 31.4238 40.8009 31.7468 40.7838 32.0965C40.7707 32.3656 40.559 32.5608 40.2803 32.5608Z" fill="white"/>
<path d="M31.7505 31.0843H30.1112C29.5393 31.0843 29.0356 30.5745 29.062 30.0221L29.1997 27.1482C29.2338 26.4368 29.7929 25.9207 30.5296 25.9207H32.0776C32.6495 25.9207 33.153 26.4306 33.1266 26.983L32.9847 29.945C32.9531 30.6052 32.4342 31.0843 31.7505 31.0843Z" fill="white"/>
<path d="M36.5375 31.0843H34.8981C34.3261 31.0843 33.8224 30.5745 33.8489 30.0221L33.9867 27.1482C34.0208 26.4368 34.5798 25.9207 35.3164 25.9207H36.8644C37.4364 25.9207 37.9399 26.4306 37.9134 26.983L37.7716 29.945C37.7399 30.6052 37.2212 31.0843 36.5375 31.0843Z" fill="white"/>
<path d="M31.7548 29.1761H30.8805C30.5755 29.1761 30.307 28.9042 30.3211 28.6097L30.3945 27.0771C30.4127 26.6977 30.7108 26.4226 31.1036 26.4226H31.9291C32.234 26.4226 32.5027 26.6945 32.4886 26.989L32.4129 28.5687C32.3959 28.9207 32.1194 29.1761 31.7548 29.1761Z" fill="#29CC7A"/>
<path d="M36.6628 29.1761H35.7887C35.4837 29.1761 35.2152 28.9042 35.2293 28.6097L35.3026 27.0771C35.3207 26.6977 35.619 26.4226 36.0118 26.4226H36.8373C37.1423 26.4226 37.4108 26.6945 37.3967 26.989L37.321 28.5687C37.3041 28.9207 37.0273 29.1761 36.6628 29.1761Z" fill="#29CC7A"/>
</svg>
