<svg width="60" height="61" viewBox="0 0 60 61" fill="none" xmlns="http://www.w3.org/2000/svg">
<g clip-path="url(#clip0_1528_40027)">
<path d="M8.66757 54.7057C8.54907 54.661 8.43044 54.6123 8.31108 54.5714C7.93957 54.4466 7.55723 54.3546 7.18572 54.2298C6.32739 53.9409 5.62375 53.4876 4.92479 52.9286C4.00358 54.0091 3.24493 55.242 2.67407 56.5151H10.2469C9.93125 56.0266 9.63985 55.5225 9.37515 55.0049C9.13175 54.9869 8.89068 54.8911 8.66757 54.7057Z" fill="#9AFFD8"/>
<path d="M3.79055 51.8648C3.15754 51.1571 2.64944 50.3428 2.38093 49.4263C2.05655 48.3198 2.13826 47.0499 2.83956 46.1012C3.95077 44.5982 5.88104 44.2793 7.56865 44.7953C7.63781 44.2503 7.73207 43.7085 7.85537 43.1729C8.51422 40.3087 9.85395 37.8138 11.661 35.7021C11.7349 35.0227 12.0364 34.3647 12.3984 33.7984C13.1476 32.6252 14.1803 31.627 15.3002 30.7655C13.8568 30.6728 12.4158 30.5331 10.9802 30.3344C10.494 30.2669 10.3472 29.4783 10.4972 29.1196C10.6934 28.6506 12.027 28.5188 12.4738 28.4214C13.9322 28.1032 15.4377 28.0216 16.9093 27.7743C17.338 27.702 17.7676 27.6337 18.1988 27.5732C18.974 27.4649 19.7538 27.3856 20.5367 27.3266C21.0315 26.4825 21.4681 25.6123 22.0382 24.8089C23.4353 22.8433 25.3209 21.1014 27.6329 20.1527C29.7925 19.2668 32.4705 19.0038 34.6214 20.0577C35.4177 20.448 36.306 21.008 37.1793 21.6488C40.1697 20.3491 43.3565 19.4404 46.3455 18.1109C48.9897 16.9352 51.6684 15.2099 52.6257 12.4794C53.8265 9.05383 51.7423 5.12241 48.6386 3.24008C45.535 1.35762 41.7019 1.13378 38.0847 1.4378C35.6235 1.64433 33.1294 2.06917 30.7043 1.60184C28.2792 1.13464 25.8682 -0.490949 25.3743 -2.91061C25.335 -3.10068 25.3099 -3.29149 25.2949 -3.48145H8.6438C7.13524 -2.75896 5.53156 -2.27137 4.01439 -2.03881C3.08605 -1.89675 2.16496 -1.83548 1.25003 -1.83781L-1.25 27.1426L1.25003 55.8793C1.88685 54.4492 2.71699 53.1087 3.74342 51.9182C3.75917 51.9001 3.7748 51.8828 3.79055 51.8648Z" fill="#9AFFD8"/>
<path d="M30.6233 4.33781C33.0483 4.80514 35.5425 4.38017 38.0037 4.17364C41.6209 3.86974 45.5333 1.35652 48.6369 3.23898C51.7404 5.12144 53.8248 9.05274 52.624 12.4783C51.6666 15.2088 48.9879 16.9342 46.3437 18.1098C43.3548 19.4394 40.168 20.348 37.1775 21.6477C38.5196 22.6309 39.8255 23.8034 40.7083 24.8416C41.3114 25.5515 42.154 26.5536 42.3323 27.4904C42.7713 27.5973 43.2064 27.7237 43.6391 27.8706C44.0898 28.023 44.5501 28.1918 45.0094 28.3787C46.4993 27.3939 48.1398 26.6125 49.7795 25.9749C53.4328 24.5533 57.3555 24.1481 61.2476 24.3264V-3.48254H25.2932C25.3081 -3.29247 25.2548 -0.365453 25.2933 -0.174641C25.788 2.24489 28.1982 3.8706 30.6233 4.33781Z" fill="#9FA9FF"/>
<path d="M46.6921 29.1696C47.7139 29.7279 48.657 30.4143 49.385 31.275C50.0171 32.0218 50.4994 32.9455 50.4453 33.9506C50.4044 34.7108 50.0949 35.4718 49.6144 36.0835C49.6442 36.1377 49.6732 36.192 49.7015 36.2461C49.8287 36.4903 49.9465 36.7385 50.0533 36.9922C50.8473 38.873 51.4551 40.929 51.8148 43.0407C52.2655 42.9323 52.7406 42.9355 53.1993 43.0414C54.4762 43.3367 55.4367 44.3876 55.8663 45.5876C55.8733 45.6071 55.8788 45.6267 55.8851 45.6464C56.0689 46.1334 56.1655 46.6626 56.1882 47.2084C56.2974 49.8753 54.2029 51.8348 52.3205 53.3975C51.9766 53.6826 51.5706 53.8051 51.1819 53.7297C51.1496 53.8239 51.119 53.9182 51.0853 54.0108C50.757 54.9171 50.3603 55.7487 49.9049 56.5137H61.2497V25.8979C56.1717 25.671 51.1096 26.5184 46.6921 29.1696Z" fill="#9FA9FF"/>
<path d="M4.86359 52.882C4.48186 52.5734 4.11909 52.2325 3.78929 51.8643C3.77354 51.8823 3.75779 51.8996 3.74216 51.9177C2.71574 53.1082 1.8856 54.4487 1.24878 55.8788V56.5157H2.67255C3.24341 55.2426 4.00132 54.0097 4.92327 52.9291C4.90358 52.9126 4.88401 52.8976 4.86359 52.882Z" fill="white"/>
<path d="M49.7803 25.9746C48.1406 26.6123 46.5 27.3937 45.0103 28.3784C45.5788 28.6109 46.1466 28.8724 46.6916 29.1708C51.1082 26.5188 56.1713 25.6722 61.2491 25.8992V24.3269C57.3571 24.1479 53.4344 24.5531 49.7803 25.9746Z" fill="white"/>
<path d="M16.7083 -1.76062L-6.55705 9.01745L-6.6731 22.6066C-5.39515 22.3658 1.75891 26.2523 9.25887 21.2523C24.4471 11.1268 14.795 -0.348192 16.7083 -1.76062Z" fill="#FAFFA0"/>
<path d="M56.189 47.2101C56.1671 46.665 56.0696 46.1358 55.8859 45.6488C55.8796 45.6292 55.8741 45.6096 55.8671 45.59C55.4375 44.39 54.477 43.3392 53.2001 43.044C52.7414 42.9379 52.2664 42.9348 51.8155 43.0431C51.4551 40.9314 50.8481 38.8747 50.0541 36.9946C49.9473 36.7409 49.8295 36.4928 49.7023 36.2485C49.674 36.1935 49.6442 36.1394 49.6151 36.086C49.3772 36.3899 49.0976 36.6569 48.7859 36.869C47.6448 37.6456 46.1158 37.5695 44.8254 37.3119C43.5721 37.0614 42.3343 36.5839 41.2177 35.9634C41.1604 35.9313 41.103 35.8984 41.0464 35.8661C40.5738 35.5952 40.1151 35.2992 39.6745 34.9787C38.7133 34.2805 37.8345 33.4708 37.0626 32.5693C37.0492 32.7444 37.0343 32.9188 37.0162 33.0924C36.8325 34.835 36.3691 36.8549 34.8291 37.9079C33.6636 38.7043 31.8346 38.7695 31.179 37.3151C30.6928 36.2376 30.8004 34.9347 31.0155 33.7465C31.0125 33.7544 31.0093 33.7615 31.0062 33.7693C30.4549 35.1334 29.9436 36.5006 29.148 37.7469C28.0517 39.4629 26.3994 41.387 24.3466 41.8887C23.8016 42.0223 23.2284 42.0568 22.6291 41.9587C21.7707 41.8188 20.9863 41.3822 20.6902 40.5239C20.4459 39.8155 20.5975 39.0073 20.8291 38.3172C21.0483 37.6629 21.3397 37.0323 21.6741 36.4213C21.1096 36.847 20.5142 37.2365 19.8735 37.5726C17.8041 38.6587 14.798 39.8304 12.7208 38.1726C12.0768 37.6583 11.6668 36.9201 11.644 36.0892C11.6402 35.9604 11.6472 35.8316 11.6614 35.7035C9.85426 37.8153 8.51453 40.3102 7.85569 43.1743C7.73238 43.7099 7.63812 44.2517 7.56896 44.7968C5.88135 44.2808 3.95182 44.5997 2.83987 46.1028C2.13857 47.0507 2.05686 48.3213 2.38124 49.4279C2.64975 50.3443 3.15871 51.1587 3.79086 51.8663C4.12065 52.2345 4.48355 52.5754 4.86515 52.884C4.88484 52.8997 4.90527 52.9154 4.92483 52.9311C5.6238 53.4903 6.32744 53.9434 7.18576 54.2324C7.55727 54.3573 7.93973 54.4491 8.31112 54.574C8.43135 54.614 8.54911 54.6628 8.66774 54.7083C8.89072 54.8936 9.13179 54.9903 9.37532 55.0076C9.63989 55.525 9.93129 56.0292 10.2469 56.5177L19.7611 62.7678H21.6741H34.2H39.8449H41.436L49.9049 56.5177C50.3604 55.7528 50.757 54.9204 51.0852 54.0148C51.119 53.9214 51.1504 53.8272 51.1818 53.7338C51.5705 53.8092 51.9766 53.6866 52.3206 53.4015C54.2037 51.8372 56.2981 49.8777 56.189 47.2101Z" fill="#24193A"/>
<path d="M49.3832 31.2757C48.6552 30.415 47.712 29.7287 46.6903 29.1702C46.1453 28.8719 45.5775 28.6103 45.009 28.3779C44.5495 28.1901 44.0885 28.0222 43.6386 27.869C43.2058 27.7222 42.7708 27.5957 42.3317 27.4889C42.4331 28.0238 42.32 28.5365 41.8197 28.9622C41.753 29.0187 41.68 29.0737 41.5999 29.1271C41.5276 29.175 41.4499 29.2197 41.3705 29.2629C40.3104 29.8362 38.6533 29.976 37.0693 30.0263C36.467 30.0451 35.8749 30.0522 35.3306 30.0647C34.8539 30.0758 34.4141 30.0915 34.0356 30.1244C31.3884 30.3561 28.7269 30.5784 26.0615 30.7275C23.2571 30.8839 20.448 30.9576 17.6468 30.8737C16.8631 30.8501 16.0801 30.8147 15.2979 30.7645C14.1788 31.626 13.1453 32.6241 12.3961 33.7974C12.0341 34.3637 11.7326 35.0217 11.6587 35.7011C11.6446 35.829 11.6383 35.9578 11.6414 36.0866C11.6642 36.9175 12.0742 37.6565 12.7181 38.1701C14.7961 39.8278 17.8023 38.6562 19.8708 37.57C20.5116 37.2339 21.107 36.8445 21.6715 36.4188C21.3371 37.0297 21.0457 37.6604 20.8265 38.3146C20.5949 39.0056 20.4433 39.813 20.6876 40.5213C20.9837 41.3796 21.7681 41.8155 22.6265 41.9561C23.2258 42.0542 23.7982 42.0197 24.344 41.8861C26.3977 41.3836 28.05 39.4603 29.1454 37.7444C29.941 36.4989 30.4523 35.1317 31.0036 33.7668C31.0067 33.7589 31.0099 33.7518 31.0129 33.7439C30.7978 34.9322 30.6902 36.2351 31.1764 37.3125C31.832 38.7677 33.661 38.7025 34.8265 37.9053C36.3665 36.8523 36.8299 34.8325 37.0136 33.0899C37.0317 32.9162 37.0466 32.7419 37.06 32.5668C37.8312 33.4683 38.7107 34.2779 39.6719 34.9761C40.1133 35.2966 40.571 35.5926 41.0438 35.8635C41.1012 35.8965 41.1578 35.9296 41.2151 35.961C42.3317 36.5813 43.5694 37.0588 44.8228 37.3093C46.1132 37.5669 47.6429 37.6431 48.7833 36.8664C49.0942 36.6544 49.3738 36.3866 49.6125 36.0834C50.0931 35.471 50.4026 34.7107 50.4434 33.9505C50.4983 32.9461 50.0153 32.0226 49.3832 31.2757Z" fill="#FFCD2E"/>
<path d="M42.3332 27.4893C42.1551 26.5524 41.3131 25.5504 40.7093 24.8404C39.8266 23.8022 38.5197 22.6297 37.1784 21.6466C36.3052 21.0065 35.4169 20.4458 34.6206 20.0555C32.4696 19.0016 29.7917 19.2647 27.6321 20.1505C25.3201 21.0992 23.4345 22.8411 22.0374 24.8067C21.4666 25.6101 21.0307 26.4794 20.5359 27.3244C19.753 27.3834 18.973 27.4627 18.198 27.571C17.7668 27.6315 17.3372 27.6998 16.9085 27.7721C15.4368 28.0203 13.9321 28.1019 12.473 28.4199C12.0254 28.5173 10.6919 28.6493 10.4964 29.1181C10.3464 29.477 10.4932 30.2654 10.9794 30.333C12.4148 30.5316 13.856 30.6722 15.2994 30.7642C16.0816 30.8144 16.8645 30.8498 17.6482 30.8734C20.4495 30.9573 23.2586 30.8835 26.063 30.7272C28.7284 30.578 31.3898 30.3558 34.0371 30.1241C34.4156 30.0911 34.8554 30.0755 35.3321 30.0644C35.8763 30.0519 36.4677 30.0456 37.0708 30.026C38.6548 29.9757 40.311 29.8351 41.372 29.2626C41.4514 29.2194 41.5291 29.1747 41.6013 29.1267C41.6814 29.0734 41.7552 29.0184 41.8212 28.9618C42.3207 28.5369 42.4345 28.0242 42.3332 27.4893ZM16.8433 29.6828C17.2406 29.4268 17.6467 29.184 18.0622 28.9595C17.6467 29.184 17.2406 29.4268 16.8433 29.6828ZM21.5843 27.7462C21.7257 27.7517 21.8411 27.7964 21.9299 27.8663C21.8411 27.7964 21.7257 27.7517 21.5843 27.7462Z" fill="#FF5CEF"/>
<path d="M26.2442 48.8517C26.2323 48.7691 26.2189 48.6868 26.2046 48.6051C26.2189 48.6875 26.2323 48.77 26.2442 48.8517Z" fill="white"/>
<path d="M26.2739 49.0958C26.266 49.0188 26.2564 48.942 26.2454 48.865C26.2564 48.942 26.266 49.0188 26.2739 49.0958Z" fill="white"/>
<path d="M26.2452 48.8677C26.2442 48.8624 26.2442 48.8572 26.2434 48.8519C26.2442 48.8572 26.2442 48.8624 26.2452 48.8677Z" fill="white"/>
<path d="M26.2734 49.0966C26.2734 49.0978 26.2734 49.0997 26.274 49.101C26.274 49.0997 26.2734 49.0984 26.2734 49.0966Z" fill="white"/>
<path d="M26.2752 49.1024C24.6018 50.3959 22.5403 51.1985 20.4301 51.4136C19.6362 51.4946 18.8359 51.4914 18.0459 51.4011C16.7642 51.2534 15.5109 50.8741 14.3643 50.2388C14.2488 50.1745 14.1343 50.1077 14.0227 50.0385C13.6866 49.8313 13.367 49.6028 13.0631 49.3546C12.8777 50.4446 13.0104 51.5786 13.4864 52.5862C14.0054 53.6849 14.9541 54.5589 16.0095 55.1361C17.8009 56.1146 20.1066 56.4531 22.0864 55.8241C22.4806 55.6984 22.8631 55.5359 23.2251 55.3308C23.3296 55.272 23.4309 55.2084 23.5314 55.1432C25.5174 53.8474 26.5148 51.427 26.2752 49.1024Z" fill="white"/>
<path d="M45.8415 48.8113C45.8141 48.3048 45.7214 47.8156 45.5682 47.3529C44.6918 48.2247 43.6615 48.9448 42.4701 49.4592C42.3233 49.5228 42.1741 49.5825 42.0233 49.6406C41.5442 49.8235 41.0472 49.9775 40.5391 50.1016C38.4893 50.6003 36.2598 50.6058 34.2706 50.0693C33.6078 49.8903 32.9505 49.6264 32.3843 49.2479C32.3552 49.5503 32.3537 49.8558 32.3819 50.1604C32.5774 52.2659 34.013 53.9261 35.9599 54.665C36.4845 54.8637 37.0263 54.9666 37.5815 55.035C37.7056 55.0507 37.8242 55.013 37.9255 54.9455C39.2944 55.1583 40.7565 54.9925 42.0344 54.5017C42.5416 54.307 43.0191 54.0604 43.451 53.7667C43.535 53.7094 43.6175 53.6512 43.6976 53.59C45.211 52.4411 45.9436 50.7 45.8415 48.8113Z" fill="white"/>
<path d="M26.2045 48.6061C26.2029 48.5968 26.2006 48.5874 26.199 48.5772C26.1857 48.5048 26.1715 48.4326 26.155 48.3603C26.137 48.2771 26.1165 48.1947 26.0954 48.113C25.5857 46.1843 24.1972 45.0157 22.5057 44.5005C22.1836 44.4024 21.8499 44.3277 21.5099 44.2766C21.2547 44.2382 20.9955 44.2123 20.734 44.1998C20.5596 44.1911 20.3845 44.188 20.2086 44.1903C19.8567 44.195 19.5033 44.2218 19.1515 44.2704C19.0636 44.2822 18.9756 44.2956 18.8885 44.3104C18.7133 44.3403 18.5382 44.3749 18.3654 44.4142C18.279 44.4338 18.1926 44.4549 18.1062 44.4778C17.9343 44.5225 17.7639 44.5728 17.5951 44.6286C17.3422 44.7118 17.094 44.806 16.8513 44.9112C16.6896 44.9811 16.5309 45.0565 16.3754 45.1367C16.2199 45.2167 16.0676 45.3016 15.9184 45.3911C15.77 45.4806 15.6247 45.5749 15.4833 45.6737C15.1315 45.9211 14.8056 46.1968 14.5135 46.5007C14.3964 46.6225 14.2857 46.7481 14.1796 46.8785C14.0219 47.074 13.8765 47.2789 13.7469 47.4933C13.7014 47.568 13.6582 47.6441 13.6166 47.722C13.5788 47.7918 13.5428 47.8633 13.5082 47.9347C13.3991 48.1617 13.3064 48.3973 13.2318 48.6422C13.2098 48.713 13.1901 48.7852 13.1713 48.8566C13.1643 48.8827 13.158 48.9086 13.1517 48.9345C13.1399 48.98 13.1297 49.0263 13.1195 49.0726C13.1125 49.1033 13.1053 49.1339 13.099 49.1653C13.0936 49.1905 13.0897 49.2155 13.0849 49.2414C13.0779 49.28 13.07 49.3184 13.063 49.3577C13.3661 49.6059 13.6857 49.8344 14.0226 50.0418C14.1349 50.1109 14.2488 50.1776 14.3642 50.242C15.5108 50.8773 16.7642 51.2574 18.0458 51.4042C18.8358 51.4953 19.6361 51.4977 20.4301 51.4169C22.5402 51.2016 24.6017 50.3991 26.2752 49.1056C26.2572 48.9368 26.2336 48.771 26.2045 48.6061Z" fill="#427EFC"/>
<path d="M45.5664 47.3523C45.546 47.2903 45.524 47.2283 45.5012 47.1678C45.4981 47.1599 45.4958 47.1529 45.4926 47.1451C45.473 47.0924 45.4517 47.0399 45.4306 46.988C45.4266 46.9786 45.4227 46.9691 45.4187 46.9605C45.3701 46.8435 45.3167 46.7288 45.2594 46.6165C45.2538 46.6063 45.2492 46.5961 45.2436 46.5859C45.2185 46.5364 45.1918 46.4869 45.1651 46.4383C45.1612 46.4319 45.1581 46.4249 45.1542 46.4187C45.1227 46.3629 45.0913 46.3086 45.0583 46.2538C45.0544 46.2474 45.0504 46.2411 45.0465 46.2349C45.0175 46.1877 44.9884 46.1414 44.9578 46.0959C44.9508 46.0849 44.9429 46.0731 44.935 46.0621C44.9013 46.0119 44.8667 45.9615 44.8305 45.9113C44.8298 45.9106 44.8298 45.9097 44.8291 45.909C44.7921 45.8579 44.7544 45.8084 44.716 45.7582C44.7072 45.7471 44.6986 45.7362 44.69 45.7252C44.6586 45.686 44.6272 45.6467 44.595 45.6074C44.5864 45.5964 44.5769 45.5862 44.5683 45.5752C44.5282 45.5281 44.4874 45.4809 44.445 45.4346C44.4403 45.4299 44.4355 45.4245 44.4308 45.4197C44.3939 45.3789 44.3554 45.3389 44.317 45.2996C44.3052 45.2878 44.2934 45.2753 44.2808 45.2635C44.2448 45.2265 44.2079 45.1904 44.1701 45.1551C44.1623 45.1472 44.1536 45.1393 44.1457 45.1315C44.101 45.0891 44.0547 45.0475 44.0075 45.0059C43.9958 44.9957 43.9848 44.9862 43.9731 44.976C43.9362 44.9439 43.8984 44.9124 43.86 44.881C43.8466 44.8699 43.8324 44.8582 43.8191 44.8472C43.7697 44.8079 43.7202 44.7686 43.6699 44.7302C43.5897 44.6697 43.5089 44.6125 43.4264 44.5566C42.6843 44.054 41.8455 43.7249 40.9707 43.557C40.8992 43.5427 40.827 43.5302 40.7555 43.5184C40.5341 43.4823 40.3103 43.4571 40.0864 43.4414C39.7889 43.4203 39.4896 43.4171 39.1904 43.4305C39.1833 43.4305 39.1763 43.4312 39.1692 43.4321C38.877 43.4462 38.5857 43.4761 38.2967 43.5216C38.0006 43.5688 37.7077 43.6324 37.4195 43.7117C37.2271 43.7642 37.0371 43.8248 36.8501 43.8923C36.4763 44.0265 36.1135 44.1891 35.7672 44.3784C35.4208 44.5676 35.0918 44.7836 34.7847 45.0255L34.784 45.0263C34.74 45.0608 34.6968 45.0961 34.6536 45.1315C34.6394 45.1433 34.6254 45.1551 34.612 45.1668C34.5829 45.192 34.5539 45.2163 34.5249 45.2422C34.5091 45.2564 34.4926 45.2705 34.4769 45.2846C34.4502 45.3082 34.4235 45.3325 34.3976 45.3569C34.3811 45.3718 34.3654 45.3868 34.3489 45.4025C34.3222 45.4275 34.2963 45.4527 34.2704 45.4786C34.2555 45.4927 34.2405 45.5077 34.2256 45.5226C34.1949 45.5524 34.1652 45.5838 34.1353 45.6144C34.125 45.6247 34.1157 45.6349 34.1055 45.6451C34.0662 45.686 34.0277 45.7275 33.9892 45.77C33.9782 45.7818 33.968 45.7936 33.9578 45.8053C33.9304 45.8359 33.9028 45.8674 33.8761 45.8988C33.8619 45.9152 33.8479 45.9317 33.8338 45.9483C33.8101 45.9758 33.7874 46.0032 33.7646 46.0315C33.7497 46.0496 33.7356 46.0676 33.7214 46.0849C33.6994 46.1123 33.6775 46.1398 33.6562 46.1681C33.6422 46.1862 33.628 46.2043 33.6146 46.2223C33.5918 46.2522 33.5698 46.2827 33.547 46.3126C33.5354 46.3292 33.5235 46.3449 33.5117 46.3613C33.4787 46.4069 33.4466 46.4532 33.4144 46.5003C33.4081 46.5089 33.4026 46.5184 33.3963 46.527C33.3703 46.5655 33.3445 46.6048 33.3194 46.644C33.3076 46.662 33.2958 46.6809 33.2839 46.6997C33.2651 46.7296 33.2463 46.7603 33.2275 46.7908C33.2149 46.8113 33.2024 46.8325 33.1905 46.853C33.1733 46.8819 33.1568 46.911 33.1395 46.9401C33.1269 46.9613 33.1151 46.9825 33.1034 47.0045C33.0869 47.0343 33.0704 47.0649 33.0539 47.0949C33.0429 47.1152 33.0319 47.1356 33.021 47.1569C33.0029 47.1922 32.9848 47.2275 32.9667 47.2628C32.9588 47.2785 32.9502 47.2943 32.9423 47.3107C32.9181 47.3611 32.8945 47.4113 32.8717 47.4615C32.8631 47.4812 32.8545 47.5008 32.8457 47.5212C32.8317 47.5542 32.8167 47.5864 32.8034 47.6194C32.7939 47.6421 32.7846 47.6657 32.7751 47.6885C32.7626 47.7184 32.7507 47.749 32.739 47.7796C32.7296 47.8031 32.721 47.8275 32.7115 47.8511C32.7005 47.881 32.6895 47.9115 32.6785 47.9422C32.6699 47.9657 32.6613 47.9892 32.6534 48.0137C32.6424 48.0459 32.6322 48.078 32.6212 48.1111C32.6141 48.133 32.607 48.155 32.6 48.177C32.5835 48.2295 32.5686 48.2814 32.5536 48.334C32.5489 48.3521 32.5442 48.3701 32.5396 48.389C32.5301 48.4259 32.5199 48.4628 32.5113 48.4997C32.5057 48.5241 32.5002 48.5477 32.4948 48.572C32.4876 48.6034 32.4806 48.6349 32.4736 48.6662C32.4681 48.6913 32.4634 48.7165 32.4586 48.7424C32.4523 48.773 32.4469 48.8044 32.4414 48.835C32.4367 48.8602 32.4328 48.8861 32.428 48.9113C32.4225 48.9434 32.4177 48.9749 32.4138 49.007C32.4107 49.0313 32.4068 49.0558 32.4037 49.0801C32.3989 49.1171 32.395 49.1548 32.391 49.1924C32.3887 49.2112 32.3864 49.2301 32.3848 49.2497C32.9511 49.6282 33.6083 49.8921 34.2711 50.0711C36.2603 50.6076 38.4899 50.602 40.5395 50.1034C41.0476 49.9801 41.544 49.8262 42.0238 49.6423C42.1746 49.585 42.3239 49.5246 42.4707 49.461C43.6605 48.945 44.6907 48.2241 45.5664 47.3523C45.5672 47.3523 45.5664 47.3523 45.5664 47.3523Z" fill="#427EFC"/>
</g>
<defs>
<clipPath id="clip0_1528_40027">
<rect y="0.0939941" width="60" height="60" rx="30" fill="white"/>
</clipPath>
</defs>
</svg>
