<svg width="60" height="61" viewBox="0 0 60 61" fill="none" xmlns="http://www.w3.org/2000/svg">
<rect y="0.0939941" width="60" height="60" rx="30" fill="#18191C"/>
<path d="M21.4335 46.5714H17.7002L21.0335 47.7714L19.5669 50.1714L23.9669 48.3047L31.8335 54.038C33.4335 55.238 33.8335 54.438 41.8335 44.3047L26.5002 44.9714L21.4335 46.5714Z" fill="#DD3E59"/>
<path d="M27.0338 46.9712C15.1672 47.3712 8.36709 40.3045 11.7004 30.7045C9.70043 20.0379 12.3671 16.5712 12.9004 15.9045C13.4338 15.2379 16.2338 17.6379 19.0338 19.7712C26.2338 14.1712 35.3005 13.5045 41.8338 20.4379C48.9005 17.3712 50.2338 18.0379 51.0338 18.0379C51.8338 18.0379 52.1005 22.3045 51.4338 25.9045C51.0028 28.1189 50.0926 30.2124 48.7672 32.0379C50.1005 38.0379 47.9672 46.3045 27.0338 46.9712Z" fill="#F6CA9D"/>
<path d="M45.434 35.2378C43.9673 33.5045 41.5673 33.2378 37.1673 33.7712C32.7673 34.3045 31.434 33.3712 29.9673 31.3712C29.4986 30.6393 28.8448 30.0441 28.0722 29.6461C27.2996 29.2481 26.4354 29.0613 25.5673 29.1045C24.1006 29.1045 22.234 29.6378 21.3006 33.2378C13.834 33.2378 11.1673 38.9712 12.7673 41.5045C14.3673 44.0378 20.3673 47.2378 27.034 46.9712C36.1006 46.7045 41.5673 44.9712 44.9006 42.7045C45.4536 42.268 45.9093 41.721 46.2389 41.0985C46.5685 40.476 46.7646 39.7914 46.8148 39.0889C46.865 38.3862 46.7681 37.6809 46.5304 37.0178C46.2926 36.3548 45.9193 35.7485 45.434 35.2378Z" fill="white"/>
<path d="M47.5675 29.6381C46.4268 26.9014 44.9002 24.3421 43.0342 22.0381C45.0892 20.7084 47.41 19.8437 49.8342 19.5048C50.2342 19.6381 51.1675 23.7714 47.5675 29.6381Z" fill="white"/>
<path d="M32.9364 22.7568C33.0933 22.1128 32.3507 21.3788 31.2775 21.1172C30.2044 20.8556 29.2072 21.1654 29.0503 21.8093C28.8932 22.4533 29.636 23.1873 30.7091 23.4489C31.7823 23.7105 32.7795 23.4006 32.9364 22.7568Z" fill="white"/>
<path d="M21.5589 24.2267C22.4375 23.5573 22.8605 22.6348 22.5035 22.1661C22.1465 21.6976 21.1449 21.8603 20.2662 22.5296C19.3875 23.1989 18.9646 24.1215 19.3215 24.5901C19.6786 25.0588 20.6803 24.896 21.5589 24.2267Z" fill="white"/>
<path d="M31.1669 29.9046C31.2315 29.6469 31.3648 29.4116 31.5527 29.2237C31.7405 29.0358 31.9759 28.9025 32.2336 28.838C32.7328 28.5998 33.3019 28.5524 33.8336 28.7046C34.3197 28.7988 34.7824 28.9888 35.1944 29.2634C35.6064 29.5382 35.9597 29.8921 36.2336 30.3046C36.2336 30.438 36.2336 30.7046 36.1003 30.7046H35.8336C35.1584 30.226 34.3835 29.9068 33.5669 29.7713H32.6336C32.2432 29.7806 31.8673 29.9216 31.5669 30.1713C31.3003 30.1713 31.1669 30.1713 31.1669 30.038C31.1669 29.9046 31.0336 29.9046 31.1669 29.9046Z" fill="#5F131D"/>
<path d="M16.1008 31.5046C16.2467 31.0727 16.5271 30.6988 16.9008 30.4379L18.1008 29.7712C18.6051 29.7188 19.1139 29.8114 19.5675 30.0379C19.7827 30.1299 19.9699 30.2768 20.1104 30.464C20.2508 30.6514 20.3395 30.8722 20.3675 31.1046C20.5008 31.3712 20.3675 31.5046 20.1008 31.5046H19.9675C19.7367 31.3315 19.456 31.2379 19.1675 31.2379H17.5675L16.6342 31.7712C16.6003 31.7939 16.5618 31.8084 16.5215 31.8139C16.4811 31.8194 16.44 31.8155 16.4015 31.8027C16.3628 31.7898 16.3278 31.7682 16.2987 31.7396C16.2698 31.7111 16.2476 31.6763 16.2342 31.6379C16.1008 31.6379 16.1008 31.6379 16.1008 31.5046Z" fill="#5F131D"/>
<path d="M25.4341 32.7047C26.6122 32.7047 27.5674 32.1675 27.5674 31.5047C27.5674 30.842 26.6122 30.3047 25.4341 30.3047C24.2558 30.3047 23.3008 30.842 23.3008 31.5047C23.3008 32.1675 24.2558 32.7047 25.4341 32.7047Z" fill="#892B25"/>
<path d="M19.8338 37.238C19.5653 37.2602 19.2951 37.224 19.0421 37.132C18.7889 37.0398 18.5586 36.8941 18.3671 36.7046C18.1827 36.4077 18.0742 36.07 18.0509 35.7213C18.0277 35.3725 18.0905 35.0234 18.2338 34.7046C18.2917 34.5852 18.3922 34.4917 18.5155 34.4424C18.6387 34.393 18.7761 34.3914 18.9005 34.438C19.0382 34.5868 19.1307 34.7718 19.1671 34.9713C18.9005 35.5046 18.9004 35.9046 19.0338 36.038C19.1671 36.1713 19.7005 36.3046 20.2338 36.3046L23.3005 35.238L24.9004 34.838L26.9004 35.238L30.9005 36.038C32.5005 36.3046 33.7005 36.1713 33.9671 35.7713C34.2338 35.3713 34.2338 35.5046 33.9671 34.9713C33.7005 34.438 34.1005 34.438 34.2338 34.438C34.3581 34.3914 34.4954 34.393 34.6187 34.4424C34.7419 34.4917 34.8425 34.5852 34.9005 34.7046C35.0183 34.968 35.0558 35.2602 35.0083 35.5449C34.961 35.8294 34.8306 36.0937 34.6338 36.3046C34.1005 36.9713 32.9005 37.238 30.7671 36.9713L26.6338 36.038L24.9004 35.638L23.7005 36.1713C22.613 36.5614 21.499 36.8733 20.3671 37.1046L19.8338 37.238Z" fill="#892B25"/>
<path d="M24.901 35.6381C24.7948 35.6381 24.6931 35.596 24.6182 35.5209C24.5431 35.446 24.501 35.3443 24.501 35.2381V32.7048C24.6343 32.4381 24.7676 32.3048 25.0343 32.3048C25.301 32.3048 25.4343 32.5715 25.4343 32.8381L25.1676 35.2381C25.1726 35.3247 25.1492 35.4105 25.1011 35.4827C25.053 35.5548 24.9827 35.6093 24.901 35.6381Z" fill="#892B25"/>
</svg>
